<?xml version="1.0" encoding="UTF-8"?>
<svg width="345px" height="187px" viewBox="0 0 345 187" version="1.1" xmlns="http://www.w3.org/2000/svg" xmlns:xlink="http://www.w3.org/1999/xlink">
    <!-- Generator: Sketch 51.3 (57544) - http://www.bohemiancoding.com/sketch -->
    <title>logo-white</title>
    <desc>Created with Sketch.</desc>
    <defs></defs>
    <g id="Page-1" stroke="none" stroke-width="1" fill="none" fill-rule="evenodd">
        <g id="logo-white" fill-rule="nonzero">
            <ellipse id="Oval" fill="#0033A1" cx="175.1" cy="56.1" rx="91.7" ry="46.8"></ellipse>
            <path d="M175.4,0 C110.7,0 58.2,24.8 58.2,55.4 C58.2,86 110.7,110.8 175.4,110.8 C240.1,110.8 292.6,86 292.6,55.4 C292.6,24.8 240.2,0 175.4,0 Z M175.4,101.6 C138,101.6 105.8,90.2 91.8,73.8 C87.6,68.1 85.2,61.9 85.2,55.4 C85.2,48.9 87.6,42.7 91.8,37 C105.8,20.7 138,9.2 175.4,9.2 C212.8,9.2 245,20.6 259,37 C263.2,42.7 265.6,48.9 265.6,55.4 C265.6,61.9 263.2,68.1 259,73.8 C245,90.1 212.9,101.6 175.4,101.6 Z" id="Shape" fill="#BBBBBB"></path>
            <path d="M228.1,26.3 L124.9,26.3 C122.9,26.3 121.2,28 121.2,30 L121.2,80 C121.2,82 122.9,83.7 124.9,83.7 L228.1,83.7 C230.1,83.7 231.8,82 231.8,79.6 L231.8,29.6 C231.8,28 230.2,26.3 228.1,26.3 Z" id="Shape" fill="#FFFFFF"></path>
            <path d="M222.9,42.9 L184.4,42.9 C182.3,42.9 180.6,41.2 180.6,39.1 L180.6,35.7 C180.6,33.6 182.3,31.9 184.4,31.9 L222.9,31.9 C225,31.9 226.7,33.6 226.7,35.7 L226.7,39.1 C226.7,41.1 225,42.9 222.9,42.9 Z" id="Shape" fill="#CE0E2D"></path>
            <path d="M222.9,60.5 L184.4,60.5 C182.3,60.5 180.6,58.8 180.6,56.7 L180.6,53.3 C180.6,51.2 182.3,49.5 184.4,49.5 L222.9,49.5 C225,49.5 226.7,51.2 226.7,53.3 L226.7,56.7 C226.7,58.8 225,60.5 222.9,60.5 Z" id="Shape" fill="#CE0E2D"></path>
            <path d="M222.9,78.2 L184.4,78.2 C182.3,78.2 180.6,76.5 180.6,74.4 L180.6,71 C180.6,68.9 182.3,67.2 184.4,67.2 L222.9,67.2 C225,67.2 226.7,68.9 226.7,71 L226.7,74.4 C226.7,76.5 225,78.2 222.9,78.2 Z" id="Shape" fill="#CE0E2D"></path>
            <path d="M171.8,31.7 L130,31.7 C128,31.7 126.3,33.4 126.3,35.4 L126.3,74.6 C126.3,76.6 128,78.3 130,78.3 L171.7,78.3 C173.7,78.3 175.4,76.6 175.4,74.6 L175.4,35.4 C175.4,33.4 173.8,31.7 171.8,31.7 Z M154,56.8 L144.9,53.5 L138.9,61 L139.2,51.5 L130.1,48.2 L139.4,45.6 L139.7,36.1 L145.1,44 L154.4,41.4 L148.4,48.9 L154,56.8 Z" id="Shape" fill="#0033A1"></path>
            <path d="M40.8,118.6 L40.8,140.2 C40.8,142.4 41.1,144.2 41.8,145.5 C42.5,146.8 43.5,147.9 45.1,148.7 C46.6,149.5 48.4,150 50.4,150 C52.6,150 54.5,149.6 56,148.8 C57.5,148 58.7,146.9 59.4,145.5 C60.1,144.1 60.5,142.2 60.5,139.7 L60.5,118.6 L67.7,118.6 L67.7,140.6 C67.7,145.6 66.2,149.4 63.2,152.1 C60.2,154.8 56,156.1 50.5,156.1 C47.1,156.1 44.1,155.5 41.6,154.3 C39.1,153.1 37.1,151.3 35.8,149 C34.5,146.7 33.8,144 33.8,140.9 L33.8,118.6 L40.8,118.6 Z" id="Shape" fill="#FFFFFF"></path>
            <path d="M68.5,149 C69.4,149 70.3,149.3 71,150 C71.7,150.7 72.1,151.5 72.1,152.5 C72.1,153.5 71.8,154.3 71.1,155 C70.4,155.7 69.6,156.1 68.6,156.1 C67.6,156.1 66.8,155.7 66.1,155 C65.4,154.3 65,153.5 65,152.5 C65,151.5 65.4,150.7 66.1,150 C66.7,149.3 67.5,149 68.5,149 Z" id="Shape" fill="#FFFFFF"></path>
            <path d="M103.4,149 C104.3,149 105.2,149.3 105.9,150 C106.6,150.7 107,151.5 107,152.5 C107,153.5 106.7,154.3 106,155 C105.3,155.7 104.5,156.1 103.5,156.1 C102.5,156.1 101.7,155.7 101,155 C100.3,154.3 99.9,153.5 99.9,152.5 C99.9,151.5 100.3,150.7 101,150 C101.6,149.3 102.4,149 103.4,149 Z" id="Shape" fill="#FFFFFF"></path>
            <path d="M88.7,118.1 C92.3,118.1 95.8,119 99.1,120.8 L99.1,127.2 C95.3,124.9 91.8,123.7 88.9,123.7 C87.1,123.7 85.7,124 84.7,124.7 C83.7,125.4 83.2,126.3 83.2,127.5 C83.2,128.9 84.1,130.2 86,131.4 C86.5,131.8 88.6,132.7 92.1,134.4 C95.1,135.8 97.3,137.4 98.7,139.2 C100,140.9 100.7,143.1 100.7,145.5 C100.7,148.7 99.6,151.2 97.3,153.2 C95,155.2 92,156.1 88.4,156.1 C86,156.1 84,155.8 82.3,155.3 C80.6,154.8 78.7,153.9 76.5,152.6 L76.5,145.5 C80.5,148.8 84.2,150.4 87.7,150.4 C89.5,150.4 90.9,150 92,149.3 C93.1,148.5 93.6,147.5 93.6,146.3 C93.6,144.6 92.7,143.2 90.8,142.1 C89.2,141.3 87.2,140.2 84.8,139.1 C81.9,137.8 79.7,136.2 78.3,134.5 C76.9,132.7 76.1,130.7 76.1,128.3 C76.1,125.2 77.3,122.7 79.6,120.9 C81.8,119 84.9,118.1 88.7,118.1 Z" id="Shape" fill="#FFFFFF"></path>
            <polygon id="Shape" fill="#FFFFFF" points="121.1 118.6 121.1 135.7 121.3 135.7 134.9 118.6 143.1 118.6 129.2 136 147.1 155.6 137.9 155.6 121.1 137.4 121.1 155.6 113.9 155.6 113.9 118.6"></polygon>
            <polygon id="Shape" fill="#FFFFFF" points="153.7 123 153.7 155.5 147.4 155.5 147.4 123"></polygon>
            <path d="M170.6,123 C174,123 177,123.7 179.7,125.1 C182.3,126.5 184.4,128.4 185.9,130.9 C187.4,133.4 188.1,136.2 188.1,139.3 C188.1,142.5 187.4,145.3 185.9,147.8 C184.4,150.3 182.3,152.2 179.6,153.5 C176.9,154.8 173.8,155.5 170.3,155.5 L157,155.5 L157,123 L170.6,123 Z M169.9,150.6 C173.4,150.6 176.2,149.6 178.3,147.5 C180.4,145.4 181.5,142.7 181.5,139.3 C181.5,135.8 180.4,133 178.3,131 C176.2,129 173.3,128 169.7,128 L163.2,128 L163.2,150.7 L169.9,150.7 L169.9,150.6 Z" id="Shape" fill="#FFFFFF"></path>
            <path d="M199.1,122.6 C202.3,122.6 205.3,123.4 208.3,125 L208.3,130.6 C204.9,128.6 201.9,127.6 199.3,127.6 C197.7,127.6 196.5,127.9 195.6,128.5 C194.7,129.1 194.3,129.9 194.3,131 C194.3,132.2 195.1,133.4 196.8,134.4 C197.3,134.7 199.1,135.6 202.2,137 C204.9,138.3 206.8,139.7 208,141.2 C209.2,142.7 209.8,144.6 209.8,146.7 C209.8,149.5 208.8,151.7 206.8,153.5 C204.8,155.2 202.2,156.1 199,156.1 C196.9,156.1 195.1,155.9 193.6,155.4 C192.1,154.9 190.4,154.2 188.5,153 L188.5,146.8 C192,149.7 195.3,151.1 198.3,151.1 C199.8,151.1 201.1,150.8 202,150.1 C202.9,149.4 203.4,148.5 203.4,147.4 C203.4,145.9 202.6,144.7 200.9,143.7 C199.5,143 197.8,142.1 195.6,141 C193,139.8 191.1,138.5 189.8,136.9 C188.5,135.3 187.9,133.5 187.9,131.5 C187.9,128.8 188.9,126.6 191,125 C193.1,123.4 195.7,122.6 199.1,122.6 Z" id="Shape" fill="#FFFFFF"></path>
            <path d="M232.3,118.1 C236.9,118.1 241.4,119.1 245.9,121.1 L245.9,127.6 C241.4,125.3 237,124.2 232.7,124.2 C230,124.2 227.6,124.7 225.5,125.8 C223.4,126.9 221.8,128.4 220.6,130.4 C219.4,132.4 218.9,134.7 218.9,137.2 C218.9,141 220.2,144 222.7,146.3 C225.2,148.6 228.5,149.8 232.6,149.8 C233.7,149.8 234.8,149.7 235.8,149.5 C236.8,149.3 238.1,148.9 239.5,148.4 L239.5,142.3 L233.4,142.3 L233.4,136.7 L246.7,136.7 L246.7,151.9 C244.9,153.2 242.7,154.2 240.1,154.9 C237.5,155.6 234.9,156 232.1,156 C228.2,156 224.7,155.2 221.5,153.6 C218.3,152 215.9,149.7 214.1,146.8 C212.3,143.9 211.4,140.7 211.4,137.1 C211.4,133.5 212.3,130.2 214.1,127.3 C215.9,124.4 218.4,122.1 221.6,120.5 C224.8,118.9 228.4,118.1 232.3,118.1 Z" id="Shape" fill="#BCBEC0"></path>
            <path d="M265.9,122.6 C269.3,122.6 272.3,123.3 275,124.7 C277.7,126.1 279.9,128.1 281.5,130.7 C283.1,133.3 283.9,136.2 283.9,139.3 C283.9,142.4 283.1,145.2 281.6,147.8 C280,150.4 277.9,152.4 275.2,153.9 C272.5,155.3 269.4,156.1 266,156.1 C262.6,156.1 259.5,155.4 256.8,153.9 C254,152.4 251.9,150.4 250.3,147.9 C248.8,145.3 248,142.5 248,139.4 C248,136.4 248.8,133.6 250.3,131 C251.8,128.4 254,126.3 256.7,124.9 C259.4,123.5 262.3,122.6 265.9,122.6 Z M254.3,139.4 C254.3,141.6 254.8,143.5 255.8,145.2 C256.8,146.9 258.1,148.3 259.9,149.2 C261.7,150.2 263.6,150.6 265.8,150.6 C269.1,150.6 271.9,149.5 274.1,147.4 C276.3,145.3 277.3,142.6 277.3,139.3 C277.3,137.1 276.8,135.2 275.8,133.4 C274.8,131.7 273.5,130.3 271.7,129.4 C269.9,128.5 267.9,128 265.7,128 C263.5,128 261.5,128.5 259.7,129.4 C257.9,130.4 256.6,131.7 255.6,133.4 C254.8,135.2 254.3,137.2 254.3,139.4 Z" id="Shape" fill="#BCBEC0"></path>
            <polygon id="Shape" fill="#BCBEC0" points="291.3 123 291.3 150.7 307.1 150.7 307.1 155.6 285 155.6 285 123"></polygon>
            <polygon id="Shape" fill="#BCBEC0" points="328.3 123 328.3 127.9 314.7 127.9 314.7 136.3 328.3 136.3 328.3 141.3 314.7 141.3 314.7 155.6 308.4 155.6 308.4 123"></polygon>
            <g id="Group" transform="translate(0.000000, 164.000000)" fill="#FFFFFF">
                <path d="M3.8,15.1 C3.8,15.5 3.6,15.9 3.3,16.3 C3,16.6 2.6,16.8 2.1,16.8 C1.6,16.8 1.3,16.6 0.9,16.3 C0.6,16 0.4,15.6 0.4,15.1 C0.4,14.6 0.6,14.2 0.9,13.9 C1.2,13.6 1.6,13.4 2.1,13.4 C2.6,13.4 3,13.6 3.3,13.9 C3.6,14.2 3.8,14.7 3.8,15.1 Z M11.5,15.1 C11.5,15.5 11.3,15.9 11,16.3 C10.7,16.6 10.3,16.8 9.8,16.8 C9.4,16.8 9,16.6 8.6,16.3 C8.3,16 8.1,15.6 8.1,15.1 C8.1,14.8 8.2,14.5 8.3,14.3 C8.4,14 8.6,13.8 8.9,13.7 C9.2,13.6 9.4,13.5 9.7,13.5 C10,13.5 10.3,13.6 10.5,13.7 C10.8,13.8 11,14.1 11.1,14.3 C11.2,14.5 11.5,14.8 11.5,15.1 Z M19.1,15.1 C19.1,15.6 18.9,16 18.6,16.3 C18.3,16.6 17.9,16.8 17.4,16.8 C16.9,16.8 16.5,16.6 16.2,16.3 C15.9,16 15.7,15.6 15.7,15.1 C15.7,14.6 15.9,14.2 16.2,13.9 C16.5,13.6 16.9,13.4 17.4,13.4 C17.8,13.4 18.2,13.6 18.6,13.9 C19,14.2 19.1,14.6 19.1,15.1 Z" id="Shape"></path>
                <polygon id="Shape" points="26.4 0.8 24.2 16.5 21.7 16.5 23.9 0.8"></polygon>
                <path d="M31.4,5.9 C32.2,5.9 32.9,6.1 33.5,6.4 C34.1,6.7 34.6,7.3 34.9,7.9 C35.2,8.5 35.4,9.3 35.4,10.2 C35.4,10.6 35.4,11 35.3,11.4 L28.7,11.4 C28.7,11.7 28.6,11.9 28.6,12.1 C28.6,12.7 28.7,13.1 28.9,13.6 C29.1,14 29.4,14.3 29.8,14.6 C30.2,14.8 30.6,14.9 31.1,14.9 C31.6,14.9 32.1,14.8 32.7,14.6 C33.3,14.4 33.9,14.1 34.7,13.7 L34.3,15.9 C33.1,16.6 31.9,16.9 30.8,16.9 C29.9,16.9 29,16.7 28.3,16.3 C27.6,15.9 27,15.3 26.6,14.5 C26.2,13.7 26,12.8 26,11.8 C26,10.7 26.2,9.7 26.7,8.8 C27.2,7.9 27.8,7.2 28.6,6.7 C29.6,6.1 30.5,5.9 31.4,5.9 Z M33,9.9 L33,9.7 C33,9.1 32.9,8.6 32.6,8.3 C32.3,7.9 31.9,7.8 31.3,7.8 C30.2,7.8 29.4,8.5 29,9.9 L33,9.9 Z" id="Shape"></path>
                <path d="M44.8,16.5 L42.3,16.5 L42.5,15.4 C41.6,16.3 40.6,16.7 39.6,16.7 C38.9,16.7 38.4,16.5 37.8,16.1 C37.2,15.7 36.8,15.2 36.5,14.6 C36.2,13.9 36,13.2 36,12.4 C36,11.1 36.3,9.9 36.9,8.9 C37.5,7.9 38.4,7.1 39.4,6.6 C40.5,6.1 41.8,5.8 43.2,5.8 C44.2,5.8 45.2,5.9 46.1,6.1 L44.8,16.5 Z M43.6,8 C43.4,8 43.2,8 42.9,8 C42.3,8 41.7,8.1 41.2,8.3 C40.7,8.5 40.2,8.8 39.9,9.1 C39.6,9.4 39.2,10 39,10.5 C38.8,11.1 38.7,11.7 38.7,12.3 C38.7,13 38.9,13.6 39.2,14.1 C39.5,14.5 40,14.8 40.5,14.8 C40.9,14.8 41.2,14.7 41.7,14.5 C42.1,14.3 42.5,14 42.9,13.6 L43.6,8 Z" id="Shape"></path>
                <path d="M57.9,0.8 L55.7,16.4 C54.7,16.6 53.6,16.7 52.3,16.7 C51.2,16.7 50.3,16.5 49.4,16.1 C48.5,15.7 47.9,15.2 47.5,14.5 C47.1,13.8 46.8,13 46.8,12 C46.8,10.7 47.1,9.6 47.7,8.7 C48.3,7.8 49.1,7 50.2,6.6 C51.3,6.2 52.5,5.9 53.9,5.9 L54.7,5.9 L55.4,0.8 L57.9,0.8 Z M54.4,8 L54,8 C53.1,8 52.3,8.2 51.6,8.5 C50.9,8.8 50.4,9.3 50.1,9.9 C49.8,10.5 49.6,11.2 49.6,12 C49.6,12.8 49.9,13.5 50.4,14 C50.9,14.5 51.6,14.8 52.5,14.8 C53,14.8 53.3,14.8 53.6,14.7 L54.4,8 Z" id="Shape"></path>
                <path d="M61.7,6.2 L60.2,16.6 L57.7,16.6 L59.1,6.2 L61.7,6.2 Z M62.2,3.1 C62.2,3.3 62.1,3.6 62,3.8 C61.9,4 61.7,4.2 61.5,4.3 C61.3,4.4 61.1,4.5 60.8,4.5 C60.5,4.5 60.3,4.4 60.1,4.3 C59.9,4.2 59.7,4 59.6,3.8 C59.5,3.6 59.4,3.4 59.4,3.1 C59.4,2.9 59.5,2.6 59.6,2.4 C59.7,2.2 59.9,2 60.1,1.9 C60.3,1.8 60.5,1.7 60.8,1.7 C61.1,1.7 61.3,1.8 61.5,1.9 C61.7,2 61.9,2.2 62,2.4 C62.1,2.6 62.2,2.8 62.2,3.1 Z" id="Shape"></path>
                <path d="M71,16.5 L68.5,16.5 L69.3,10.7 C69.4,10.3 69.4,10 69.4,9.8 C69.4,9.6 69.4,9.4 69.4,9.2 C69.4,8.8 69.3,8.5 69.1,8.3 C68.9,8.1 68.7,7.9 68.3,7.9 C68,7.9 67.6,8.1 67.1,8.4 C66.6,8.7 66,9.2 65.4,9.9 L64.5,16.5 L62,16.5 L63.4,6.1 L65.9,6.1 L65.7,7.8 C66.3,7.2 66.9,6.7 67.5,6.4 C68.1,6.1 68.7,5.9 69.3,5.9 C69.9,5.9 70.4,6 70.8,6.3 C71.2,6.6 71.5,6.9 71.7,7.3 C71.9,7.7 72,8.2 72,8.8 C72,8.9 72,9.1 72,9.2 C72,9.3 72,9.4 72,9.6 C72,9.7 72,9.9 72,10.1 C72,10.3 72,10.5 71.9,10.7 L71,16.5 Z" id="Shape"></path>
                <path d="M83.1,6.2 L82.9,8.1 L81,8.1 C81.2,8.5 81.4,8.8 81.4,9.1 C81.5,9.4 81.5,9.7 81.5,10 C81.5,11 81.2,11.8 80.6,12.5 C80,13.2 79.2,13.6 78.2,13.8 C77.9,13.9 77.5,13.9 77.2,14 C76.9,14.1 76.6,14.1 76.3,14.2 C76,14.3 75.8,14.4 75.7,14.5 C75.6,14.6 75.5,14.8 75.5,14.9 C75.5,15.1 75.6,15.2 75.8,15.3 C76,15.4 76.2,15.5 76.5,15.6 C76.8,15.7 77.1,15.7 77.5,15.8 C78.9,16.1 79.9,16.4 80.6,16.9 C81.2,17.4 81.5,18.1 81.5,18.9 C81.5,19.5 81.3,20.1 80.9,20.6 C80.5,21.1 80,21.4 79.3,21.7 C78.6,22 77.7,22.1 76.8,22.1 C75.8,22.1 75,22 74.3,21.8 C73.6,21.6 73.1,21.3 72.7,20.9 C72.3,20.5 72.1,20.1 72.1,19.5 C72.1,18.9 72.3,18.6 72.8,18.2 C73.3,17.8 74,17.5 74.9,17.3 C73.8,16.9 73.3,16.3 73.3,15.4 C73.3,15.1 73.4,14.9 73.6,14.6 C73.8,14.3 74,14.1 74.3,13.9 C74.6,13.7 75,13.6 75.4,13.5 C74.2,12.8 73.6,11.9 73.6,10.5 C73.6,9.8 73.8,9.1 74.1,8.5 C74.5,7.9 75,7.4 75.6,7 C76.3,6.6 77,6.5 77.7,6.5 L83.1,6.5 L83.1,6.2 Z M79.1,18.9 C79.1,18.6 78.9,18.4 78.5,18.2 C78.1,18 77.5,17.8 76.5,17.6 C75.8,17.7 75.2,17.9 74.8,18.1 C74.4,18.3 74.2,18.6 74.2,18.9 C74.2,19.3 74.4,19.6 74.8,19.8 C75.2,20 75.9,20.1 76.7,20.1 C78.3,20.1 79.1,19.7 79.1,18.9 Z M79.3,9.8 C79.3,9.3 79.1,8.8 78.8,8.5 C78.5,8.2 78.1,8 77.6,8 C77.2,8 76.9,8.1 76.6,8.3 C76.3,8.5 76.1,8.8 75.9,9.1 C75.7,9.4 75.7,9.9 75.7,10.3 C75.7,10.8 75.9,11.3 76.2,11.6 C76.5,11.9 76.9,12.1 77.4,12.1 C77.8,12.1 78.1,12 78.4,11.8 C78.7,11.6 78.9,11.3 79,11 C79.1,10.7 79.3,10.2 79.3,9.8 Z" id="Shape"></path>
                <path d="M94.9,6.2 L94.6,8.1 L92.4,8.1 L91.6,12.6 C91.5,13.1 91.5,13.5 91.5,13.8 C91.5,14 91.6,14.2 91.8,14.4 C92,14.6 92.2,14.7 92.5,14.7 C92.8,14.7 93.1,14.6 93.4,14.5 C93.7,14.4 94,14.2 94.4,14 L94.3,16.3 C94,16.5 93.6,16.6 93.2,16.7 C92.8,16.8 92.3,16.9 91.8,16.9 C91.2,16.9 90.7,16.8 90.3,16.6 C89.9,16.4 89.5,16.1 89.3,15.7 C89.1,15.3 88.9,14.9 88.9,14.5 C88.9,14.1 89,13.3 89.2,12.2 L89.9,8.1 L87.9,8.1 L88.2,6.2 L90.2,6.2 L90.6,4 L93.1,4 L92.7,6.2 L94.9,6.2 Z" id="Shape"></path>
                <path d="M103.7,16.5 L101.2,16.5 L102.2,9.6 C102.2,9.5 102.2,9.3 102.2,9.2 C102.2,8.8 102.1,8.5 101.9,8.2 C101.7,7.9 101.4,7.8 101.1,7.8 C100.3,7.8 99.4,8.5 98.2,9.8 L97.3,16.5 L94.8,16.5 L97,0.8 L99.5,0.8 L98.5,7.6 C99,7 99.6,6.6 100.2,6.3 C100.8,6 101.4,5.9 102,5.9 C102.8,5.9 103.5,6.2 103.9,6.7 C104.4,7.2 104.6,8 104.6,8.9 C104.6,9.1 104.6,9.4 104.5,9.7 L103.7,16.5 Z" id="Shape"></path>
                <path d="M111,5.9 C111.8,5.9 112.5,6.1 113.1,6.4 C113.7,6.7 114.2,7.3 114.5,7.9 C114.8,8.5 115,9.3 115,10.2 C115,10.6 115,11 114.9,11.4 L108.3,11.4 C108.3,11.7 108.2,11.9 108.2,12.1 C108.2,12.7 108.3,13.1 108.5,13.6 C108.7,14 109,14.3 109.4,14.6 C109.8,14.8 110.2,14.9 110.7,14.9 C111.2,14.9 111.7,14.8 112.3,14.6 C112.9,14.4 113.5,14.1 114.3,13.7 L113.9,15.9 C112.7,16.6 111.5,16.9 110.4,16.9 C109.5,16.9 108.6,16.7 107.9,16.3 C107.2,15.9 106.6,15.3 106.2,14.5 C105.8,13.7 105.6,12.8 105.6,11.8 C105.6,10.7 105.8,9.7 106.3,8.8 C106.8,7.9 107.4,7.2 108.2,6.7 C109.1,6.1 110,5.9 111,5.9 Z M112.6,9.9 L112.6,9.7 C112.6,9.1 112.5,8.6 112.2,8.3 C111.9,7.9 111.5,7.8 110.9,7.8 C109.8,7.8 109,8.5 108.6,9.9 L112.6,9.9 Z" id="Shape"></path>
                <polygon id="Shape" points="136.4 6.2 130.8 16.8 129.4 16.8 128.2 10.4 128.2 10.4 124.9 16.8 123.5 16.8 121.1 6.2 123.5 6.2 124.7 12.7 124.7 12.7 128 6.2 129.4 6.2 130.6 12.7 130.6 12.7 133.8 6.2"></polygon>
                <path d="M145.1,10.6 C145.1,11.7 144.9,12.8 144.4,13.8 C143.9,14.8 143.3,15.5 142.5,16 C141.7,16.5 140.8,16.8 139.8,16.8 C138.9,16.8 138.1,16.6 137.5,16.2 C136.9,15.8 136.3,15.2 135.9,14.5 C135.5,13.8 135.3,12.9 135.3,12 C135.3,10.9 135.5,9.9 136,8.9 C136.5,7.9 137.1,7.2 138,6.7 C138.8,6.2 139.7,5.9 140.7,5.9 C141.6,5.9 142.3,6.1 143,6.5 C143.7,6.9 144.2,7.4 144.6,8.2 C145,9 145.1,9.7 145.1,10.6 Z M142.6,10.5 C142.6,9.7 142.4,9.1 142.1,8.6 C141.7,8.1 141.3,7.9 140.7,7.9 C140.2,7.9 139.7,8.1 139.3,8.5 C138.9,8.9 138.5,9.4 138.3,10.1 C138.1,10.8 137.9,11.5 137.9,12.2 C137.9,12.7 138,13.1 138.2,13.5 C138.4,13.9 138.6,14.2 138.9,14.4 C139.2,14.6 139.5,14.7 139.9,14.7 C140.4,14.7 140.9,14.5 141.4,14.1 C141.8,13.7 142.2,13.2 142.4,12.6 C142.6,12 142.6,11.3 142.6,10.5 Z" id="Shape"></path>
                <path d="M152.4,8.9 C152.2,8.7 152.1,8.6 151.9,8.5 C151.7,8.4 151.5,8.4 151.3,8.4 C150.5,8.4 149.8,9.1 149.1,10.5 L148.2,16.5 L145.7,16.5 L147.1,6.1 L149.6,6.1 L149.3,8 C149.8,7.3 150.3,6.8 150.7,6.4 C151.1,6.1 151.6,5.9 152,5.9 C152.3,5.9 152.5,6 152.7,6.1 C152.9,6.2 153.2,6.3 153.4,6.5 L152.4,8.9 Z" id="Shape"></path>
                <polygon id="Shape" points="157.7 0.8 155.5 16.5 153 16.5 155.2 0.8"></polygon>
                <path d="M168.4,0.8 L166.2,16.4 C165.2,16.6 164.1,16.7 162.8,16.7 C161.7,16.7 160.8,16.5 159.9,16.1 C159,15.7 158.4,15.2 158,14.5 C157.6,13.8 157.3,13 157.3,12 C157.3,10.7 157.6,9.6 158.2,8.7 C158.8,7.8 159.6,7 160.7,6.6 C161.8,6.2 163,5.9 164.4,5.9 L165.2,5.9 L165.9,0.8 L168.4,0.8 Z M164.9,8 L164.4,8 C163.5,8 162.7,8.2 162,8.5 C161.3,8.8 160.8,9.3 160.5,9.9 C160.2,10.5 160,11.2 160,12 C160,12.8 160.3,13.5 160.8,14 C161.3,14.5 162,14.8 162.9,14.8 C163.4,14.8 163.7,14.8 164,14.7 L164.9,8 Z" id="Shape"></path>
                <path d="M177.7,6.2 L176.2,16.6 L173.7,16.6 L175.1,6.2 L177.7,6.2 Z M178.1,3.1 C178.1,3.3 178,3.6 177.9,3.8 C177.8,4 177.6,4.2 177.4,4.3 C177.2,4.4 177,4.5 176.7,4.5 C176.4,4.5 176.2,4.4 176,4.3 C175.8,4.2 175.6,4 175.5,3.8 C175.4,3.6 175.3,3.4 175.3,3.1 C175.3,2.9 175.4,2.6 175.5,2.4 C175.6,2.2 175.8,2 176,1.9 C176.2,1.8 176.4,1.7 176.7,1.7 C177,1.7 177.2,1.8 177.4,1.9 C177.6,2 177.8,2.2 177.9,2.4 C178,2.6 178.1,2.8 178.1,3.1 Z" id="Shape"></path>
                <path d="M187,16.5 L184.5,16.5 L185.3,10.7 C185.4,10.3 185.4,10 185.4,9.8 C185.4,9.6 185.4,9.4 185.4,9.2 C185.4,8.8 185.3,8.5 185.1,8.3 C184.9,8.1 184.7,7.9 184.3,7.9 C184,7.9 183.6,8.1 183.1,8.4 C182.6,8.7 182,9.2 181.4,9.9 L180.5,16.5 L178,16.5 L179.4,6.1 L181.9,6.1 L181.7,7.8 C182.3,7.2 182.9,6.7 183.5,6.4 C184.1,6.1 184.7,5.9 185.3,5.9 C185.9,5.9 186.4,6 186.8,6.3 C187.2,6.6 187.5,6.9 187.7,7.3 C187.9,7.7 188,8.2 188,8.8 C188,8.9 188,9.1 188,9.2 C188,9.3 188,9.4 188,9.6 C188,9.7 188,9.9 188,10.1 C188,10.3 188,10.5 187.9,10.7 L187,16.5 Z" id="Shape"></path>
                <polygon id="Shape" points="199 0.8 197.6 10.7 197.6 10.7 201.6 6.1 204.7 6.1 200.1 11 204.4 16.4 201.3 16.4 197.5 11.2 196.8 16.4 194.3 16.4 196.5 0.7 199 0.7"></polygon>
                <path d="M208.5,6.2 L207,16.6 L204.5,16.6 L205.9,6.2 L208.5,6.2 Z M209,3.1 C209,3.3 208.9,3.6 208.8,3.8 C208.7,4 208.5,4.2 208.3,4.3 C208.1,4.4 207.9,4.5 207.6,4.5 C207.3,4.5 207.1,4.4 206.9,4.3 C206.7,4.2 206.5,4 206.4,3.8 C206.3,3.6 206.2,3.4 206.2,3.1 C206.2,2.9 206.3,2.6 206.4,2.4 C206.5,2.2 206.7,2 206.9,1.9 C207.1,1.8 207.3,1.7 207.6,1.7 C207.9,1.7 208.1,1.8 208.3,1.9 C208.5,2 208.7,2.2 208.8,2.4 C208.9,2.6 209,2.8 209,3.1 Z" id="Shape"></path>
                <path d="M220,0.8 L217.8,16.4 C216.8,16.6 215.7,16.7 214.4,16.7 C213.3,16.7 212.4,16.5 211.5,16.1 C210.6,15.7 210,15.2 209.6,14.5 C209.2,13.8 208.9,13 208.9,12 C208.9,10.7 209.2,9.6 209.8,8.7 C210.4,7.8 211.2,7 212.3,6.6 C213.4,6.2 214.6,5.9 216,5.9 L216.8,5.9 L217.5,0.8 L220,0.8 Z M216.5,8 L216,8 C215.1,8 214.3,8.2 213.6,8.5 C212.9,8.8 212.4,9.3 212.1,9.9 C211.8,10.5 211.6,11.2 211.6,12 C211.6,12.8 211.9,13.5 212.4,14 C212.9,14.5 213.6,14.8 214.5,14.8 C215,14.8 215.3,14.8 215.6,14.7 L216.5,8 Z" id="Shape"></path>
                <path d="M226.9,9.1 C226.1,8.7 225.5,8.4 225.1,8.2 C224.7,8.1 224.3,8 223.9,8 C223.5,8 223.1,8.1 223,8.2 C222.8,8.3 222.7,8.6 222.7,9 C222.7,9.1 222.8,9.3 222.9,9.5 C223,9.7 223.3,9.9 223.6,10.1 L224.2,10.5 C224.9,11 225.3,11.4 225.6,11.7 C225.9,12 226.1,12.3 226.2,12.6 C226.3,12.9 226.4,13.3 226.4,13.7 C226.4,14.3 226.3,14.8 226,15.3 C225.7,15.8 225.3,16.2 224.7,16.4 C224.1,16.6 223.6,16.8 222.9,16.8 C222.3,16.8 221.6,16.7 221,16.6 C220.4,16.4 219.8,16.1 219.3,15.7 L219.7,13.6 C220.3,14 220.8,14.3 221.3,14.5 C221.8,14.7 222.3,14.8 222.7,14.8 C223.1,14.8 223.3,14.7 223.6,14.5 C223.8,14.3 223.9,14.1 223.9,13.9 C223.9,13.7 223.8,13.4 223.6,13.2 C223.4,13 223.1,12.7 222.7,12.4 C221.8,11.8 221.2,11.3 220.9,11 C220.6,10.7 220.4,10.4 220.3,10.1 C220.2,9.8 220.1,9.5 220.1,9.1 C220.1,8.5 220.2,7.9 220.5,7.5 C220.8,7 221.2,6.6 221.8,6.4 C222.4,6.2 223,6 223.6,6 C224.2,6 224.7,6.1 225.2,6.3 C225.7,6.5 226.2,6.7 226.7,7 L226.7,9.1 L226.9,9.1 Z" id="Shape"></path>
                <path d="M246.7,16.7 C246.1,16.7 245.5,16.6 244.8,16.3 C244.1,16 243.6,15.7 243.2,15.2 C242.4,15.7 241.7,16.1 241,16.3 C240.3,16.6 239.5,16.7 238.6,16.7 C237.6,16.7 236.8,16.5 236,16.1 C235.2,15.7 234.7,15.2 234.3,14.5 C233.9,13.8 233.7,13 233.7,12.2 C233.7,11.5 233.9,10.8 234.3,10.1 C234.7,9.4 235.2,8.9 235.9,8.4 C236.6,7.9 237.4,7.6 238.4,7.3 C238.3,6.9 238.2,6.5 238.1,6.1 C238,5.7 238,5.3 238,5 C238,4.2 238.2,3.4 238.5,2.8 C238.9,2.1 239.3,1.6 240,1.3 C240.6,0.9 241.4,0.8 242.2,0.8 C242.8,0.8 243.4,0.9 244,1.2 C244.5,1.5 244.9,1.9 245.2,2.4 C245.5,2.9 245.6,3.5 245.6,4.1 C245.6,5.1 245.2,6 244.5,6.7 C243.8,7.4 242.7,8.1 241.3,8.5 C241.9,9.9 242.7,11.2 243.7,12.4 C244.7,11.5 245.4,10.4 245.8,9.2 L248.3,9.2 C247.9,10.2 247.5,11 246.9,11.8 C246.3,12.6 245.9,13.3 245.3,13.8 C246.1,14.4 246.9,14.7 247.8,14.7 C247.9,14.7 248.1,14.7 248.2,14.7 C248.4,14.7 248.5,14.7 248.5,14.6 L247.7,16.7 C247.6,16.7 247.5,16.8 247.3,16.8 C247.1,16.8 246.9,16.7 246.7,16.7 Z M241.7,13.8 C241.1,13 240.5,12.2 240.1,11.4 C239.7,10.6 239.2,9.9 239,9.2 C238.1,9.5 237.5,9.9 237.1,10.4 C236.7,10.9 236.4,11.4 236.4,12.1 C236.4,12.6 236.5,13 236.7,13.4 C236.9,13.8 237.3,14.1 237.7,14.3 C238.1,14.5 238.6,14.6 239.1,14.6 C239.9,14.7 240.7,14.4 241.7,13.8 Z M243.3,3.9 C243.3,3.5 243.2,3.1 242.9,2.8 C242.6,2.5 242.3,2.4 241.9,2.4 C241.4,2.4 241,2.6 240.7,3 C240.4,3.4 240.3,4 240.3,4.6 C240.3,5.2 240.4,5.9 240.6,6.4 C241.5,6.1 242.2,5.8 242.7,5.3 C243.1,5 243.3,4.5 243.3,3.9 Z" id="Shape"></path>
                <path d="M262.6,3.3 C261.9,2.9 261.3,2.8 260.7,2.8 C259.9,2.8 259.2,3.1 258.7,3.6 C258.2,4.1 257.9,5 257.9,6.1 L259.9,6.1 L259.6,8.1 L257.5,8.1 L255.8,21 L253.4,21 L255.1,8.1 L253.2,8.1 L253.5,6.1 L255.4,6.1 C255.5,4.4 256.1,3 256.9,2.1 C257.8,1.1 258.9,0.6 260.3,0.6 C260.7,0.6 261.1,0.6 261.5,0.7 C261.9,0.8 262.3,0.9 262.8,1.1 L262.6,3.3 Z" id="Shape"></path>
                <path d="M268.3,16.5 L265.8,16.5 L266,15.4 C265.1,16.3 264.1,16.7 263.1,16.7 C262.4,16.7 261.9,16.5 261.3,16.1 C260.7,15.7 260.3,15.2 260,14.6 C259.7,13.9 259.5,13.2 259.5,12.4 C259.5,11.1 259.8,9.9 260.4,8.9 C261,7.9 261.9,7.1 262.9,6.6 C264,6.1 265.3,5.8 266.7,5.8 C267.7,5.8 268.7,5.9 269.6,6.1 L268.3,16.5 Z M267,8 C266.8,8 266.6,8 266.3,8 C265.7,8 265.1,8.1 264.6,8.3 C264.1,8.5 263.6,8.8 263.3,9.1 C263,9.4 262.6,10 262.4,10.5 C262.2,11 262.1,11.7 262.1,12.3 C262.1,13 262.3,13.6 262.6,14.1 C262.9,14.5 263.4,14.8 263.9,14.8 C264.3,14.8 264.6,14.7 265.1,14.5 C265.5,14.3 265.9,14 266.3,13.6 L267,8 Z" id="Shape"></path>
                <path d="M285.5,16.5 L283,16.5 L283.9,10.1 C283.9,9.8 284,9.5 284,9.3 C284,8.8 283.9,8.4 283.7,8.2 C283.5,8 283.3,7.8 283,7.8 C282.6,7.8 282.2,8 281.7,8.3 C281.2,8.6 280.7,9.1 280.1,9.8 L279.2,16.4 L276.7,16.4 L277.6,10.1 C277.6,9.8 277.7,9.5 277.7,9.2 C277.7,8.7 277.6,8.3 277.4,8.1 C277.2,7.9 276.9,7.7 276.6,7.7 C276.3,7.7 276,7.8 275.7,8 C275.4,8.2 275.1,8.4 274.7,8.8 C274.4,9.1 274,9.5 273.8,9.8 L272.9,16.4 L270.4,16.4 L271.9,6 L274.4,6 L274.2,7.6 C275.3,6.4 276.5,5.8 277.6,5.8 C278.3,5.8 278.8,6 279.3,6.4 C279.7,6.8 280,7.3 280.1,8 C280.8,7.2 281.5,6.7 282.1,6.3 C282.7,5.9 283.3,5.8 283.9,5.8 C284.7,5.8 285.4,6.1 285.9,6.6 C286.4,7.1 286.6,7.9 286.6,8.9 C286.6,9.2 286.6,9.5 286.5,9.8 L285.5,16.5 Z" id="Shape"></path>
                <path d="M291.3,6.2 L289.8,16.6 L287.3,16.6 L288.7,6.2 L291.3,6.2 Z M291.8,3.1 C291.8,3.3 291.7,3.6 291.6,3.8 C291.5,4 291.3,4.2 291.1,4.3 C290.9,4.4 290.7,4.5 290.4,4.5 C290.1,4.5 289.9,4.4 289.7,4.3 C289.5,4.2 289.3,4 289.2,3.8 C289.1,3.6 289,3.4 289,3.1 C289,2.9 289.1,2.6 289.2,2.4 C289.3,2.2 289.5,2 289.7,1.9 C289.9,1.8 290.1,1.7 290.4,1.7 C290.7,1.7 290.9,1.8 291.1,1.9 C291.3,2 291.5,2.2 291.6,2.4 C291.7,2.6 291.8,2.8 291.8,3.1 Z" id="Shape"></path>
                <polygon id="Shape" points="296.4 0.8 294.2 16.5 291.7 16.5 293.9 0.8"></polygon>
                <polygon id="Shape" points="305.8 6.2 298.3 21.9 295.7 21.9 298.6 15.8 296 6.2 298.5 6.2 300.2 12.8 300.2 12.8 303.2 6.2 305.8 6.2"></polygon>
                <path d="M320.9,6.2 L320.7,8.1 L318.8,8.1 C319,8.5 319.2,8.8 319.2,9.1 C319.3,9.4 319.3,9.7 319.3,10 C319.3,11 319,11.8 318.4,12.5 C317.8,13.2 317,13.6 316,13.8 C315.7,13.9 315.3,13.9 315,14 C314.7,14.1 314.4,14.1 314.1,14.2 C313.8,14.3 313.6,14.4 313.5,14.5 C313.4,14.6 313.3,14.8 313.3,14.9 C313.3,15.1 313.4,15.2 313.6,15.3 C313.8,15.4 314,15.5 314.3,15.6 C314.6,15.7 314.9,15.7 315.3,15.8 C316.7,16.1 317.7,16.4 318.4,16.9 C319,17.4 319.3,18.1 319.3,18.9 C319.3,19.5 319.1,20.1 318.7,20.6 C318.3,21.1 317.8,21.4 317.1,21.7 C316.4,22 315.5,22.1 314.6,22.1 C313.6,22.1 312.8,22 312.1,21.8 C311.4,21.6 310.9,21.3 310.5,20.9 C310.1,20.5 309.9,20.1 309.9,19.5 C309.9,18.9 310.1,18.6 310.6,18.2 C311.1,17.8 311.8,17.5 312.7,17.3 C311.6,16.9 311.1,16.3 311.1,15.4 C311.1,15.1 311.2,14.9 311.4,14.6 C311.6,14.3 311.8,14.1 312.1,13.9 C312.4,13.7 312.8,13.6 313.2,13.5 C312,12.8 311.4,11.9 311.4,10.5 C311.4,9.8 311.6,9.1 311.9,8.5 C312.3,7.9 312.8,7.4 313.4,7 C314.1,6.6 314.8,6.5 315.5,6.5 L320.9,6.5 L320.9,6.2 Z M316.9,18.9 C316.9,18.6 316.7,18.4 316.3,18.2 C315.9,18 315.3,17.8 314.3,17.6 C313.6,17.7 313,17.9 312.6,18.1 C312.2,18.3 312,18.6 312,18.9 C312,19.3 312.2,19.6 312.6,19.8 C313,20 313.7,20.1 314.5,20.1 C316.1,20.1 316.9,19.7 316.9,18.9 Z M317,9.8 C317,9.3 316.8,8.8 316.5,8.5 C316.2,8.2 315.8,8 315.3,8 C314.9,8 314.6,8.1 314.3,8.3 C314,8.5 313.8,8.8 313.6,9.1 C313.4,9.4 313.4,9.9 313.4,10.3 C313.4,10.8 313.6,11.3 313.9,11.6 C314.2,11.9 314.6,12.1 315.1,12.1 C315.5,12.1 315.8,12 316.1,11.8 C316.4,11.6 316.6,11.3 316.7,11 C316.8,10.7 317,10.2 317,9.8 Z" id="Shape"></path>
                <path d="M330.4,10.6 C330.4,11.7 330.2,12.8 329.7,13.8 C329.2,14.8 328.6,15.5 327.8,16 C327,16.5 326.1,16.8 325.1,16.8 C324.2,16.8 323.4,16.6 322.8,16.2 C322.2,15.8 321.6,15.2 321.2,14.5 C320.8,13.8 320.6,12.9 320.6,12 C320.6,10.9 320.8,9.9 321.3,8.9 C321.8,7.9 322.4,7.2 323.3,6.7 C324.1,6.2 325,5.9 326,5.9 C326.9,5.9 327.6,6.1 328.3,6.5 C329,6.9 329.5,7.4 329.9,8.2 C330.3,9 330.4,9.7 330.4,10.6 Z M327.8,10.5 C327.8,9.7 327.6,9.1 327.3,8.6 C326.9,8.1 326.5,7.9 325.9,7.9 C325.4,7.9 324.9,8.1 324.5,8.5 C324.1,8.9 323.7,9.4 323.5,10.1 C323.3,10.8 323.1,11.5 323.1,12.2 C323.1,12.7 323.2,13.1 323.4,13.5 C323.6,13.9 323.8,14.2 324.1,14.4 C324.4,14.6 324.7,14.7 325.1,14.7 C325.6,14.7 326.1,14.5 326.6,14.1 C327,13.7 327.4,13.2 327.6,12.6 C327.8,12 327.8,11.3 327.8,10.5 Z" id="Shape"></path>
                <polygon id="Shape" points="335.6 0.8 333.4 16.5 330.9 16.5 333.1 0.8"></polygon>
                <path d="M344.6,3.3 C343.9,2.9 343.3,2.8 342.7,2.8 C341.9,2.8 341.2,3.1 340.7,3.6 C340.2,4.1 339.9,5 339.9,6.1 L341.9,6.1 L341.6,8.1 L339.5,8.1 L337.8,21 L335.4,21 L337.1,8.1 L335.2,8.1 L335.5,6.1 L337.4,6.1 C337.5,4.4 338.1,3 338.9,2.1 C339.8,1.1 340.9,0.6 342.3,0.6 C342.7,0.6 343.1,0.6 343.5,0.7 C343.9,0.8 344.3,0.9 344.8,1.1 L344.6,3.3 Z" id="Shape"></path>
                <path d="M344.2,15.2 C344.2,15.6 344,16 343.7,16.3 C343.4,16.6 343,16.8 342.6,16.8 C342.3,16.8 342.1,16.7 341.8,16.6 C341.5,16.5 341.4,16.3 341.2,16 C341.1,15.8 341,15.5 341,15.2 C341,14.9 341.1,14.6 341.2,14.4 C341.3,14.2 341.5,14 341.8,13.8 C342.1,13.6 342.3,13.6 342.6,13.6 C343,13.6 343.4,13.8 343.7,14.1 C344,14.4 344.2,14.7 344.2,15.2 Z" id="Shape"></path>
            </g>
        </g>
    </g>
</svg>