<svg width="28" height="28" viewBox="0 0 28 28" xmlns="http://www.w3.org/2000/svg">
    <g fill="#033AA3" fill-rule="evenodd">
        <path d="M14 20.533H1.867V10.267H11.2a.933.933 0 1 0 0-1.867H.933A.933.933 0 0 0 0 9.333v12.134c0 .515.418.933.933.933H14a.933.933 0 1 0 0-1.867z"/>
        <path d="M22.4 3.733V2.8c0-1.544-1.256-2.8-2.8-2.8a2.804 2.804 0 0 0-2.8 2.8v.933a.933.933 0 0 0-.933.934 2.804 2.804 0 0 0-2.8 2.8v5.6a.933.933 0 1 0 1.866 0v-5.6c0-.516.418-.934.934-.934v14.934c0 .011.007.02.007.033a.85.85 0 0 0 .058.287c.008.021.013.042.021.062.005.012.007.024.012.035l2.8 5.6a.935.935 0 0 0 1.67 0l2.8-5.6c.006-.011.007-.023.012-.035.01-.02.015-.04.021-.062a.905.905 0 0 0 .058-.287c0-.012.007-.022.007-.033v-16.8a.933.933 0 0 0-.933-.934zM18.667 2.8a.933.933 0 1 1 1.866 0v.933h-1.866V2.8zm.933 22.18-1.29-2.58h2.58l-1.29 2.58zm1.867-4.447h-3.734V5.6h3.734v14.933zM4.667 13.067a.933.933 0 1 0 0 1.866h4.666a.933.933 0 1 0 0-1.866H4.667z"/>
        <path d="M14 16.8H4.667a.933.933 0 1 0 0 1.867H14a.933.933 0 1 0 0-1.867zM27.067 8.4H25.2a.933.933 0 1 0 0 1.867h.933v10.266H25.2a.933.933 0 1 0 0 1.867h1.867a.933.933 0 0 0 .933-.933V9.333a.933.933 0 0 0-.933-.933z"/>
    </g>
</svg>
