<svg width="83" height="83" viewBox="0 0 83 83" xmlns="http://www.w3.org/2000/svg">
    <g fill="none" fill-rule="evenodd">
        <circle fill="#F7F8FF" cx="41.5" cy="41.5" r="41.5"/>
        <g fill="#033AA3">
            <path d="M41.13 61.623c.234.252.552.377.87.377.317 0 .635-.125.868-.377l10.2-10.947c3.757-3.199 6.086-7.997 5.924-13.329-.267-8.75-7.373-15.923-16.184-16.329a17.16 17.16 0 0 0-.716-.016L42 21c-9.391 0-17 7.554-17 16.87 0 5.121 2.301 9.71 5.93 12.806l10.2 10.947zM27.965 37.87c0-7.704 6.246-13.972 14.127-13.972v-.022c.205.002.396.015.603.025 7.294.335 13.168 6.28 13.388 13.528a13.887 13.887 0 0 1-4.912 11.044l-.13.11-.117.124-8.923 9.581-8.925-9.58-.114-.121-.128-.109c-3.124-2.662-4.869-6.53-4.869-10.608z"/>
            <path d="M42 44.893c4.135 0 7.5-3.338 7.5-7.444 0-4.104-3.363-7.444-7.5-7.444-4.136.002-7.502 3.34-7.502 7.446 0 4.104 3.366 7.442 7.501 7.442zm0-11.99c2.526 0 4.58 2.04 4.58 4.547 0 2.507-2.055 4.546-4.58 4.546-2.527 0-4.582-2.04-4.582-4.546-.001-2.506 2.055-4.547 4.581-4.547z"/>
        </g>
    </g>
</svg>
