<svg width="83" height="83" viewBox="0 0 83 83" xmlns="http://www.w3.org/2000/svg">
    <g fill="none" fill-rule="evenodd">
        <circle fill="#F7F8FF" cx="41.5" cy="41.5" r="41.5"/>
        <g fill="#033AA3">
            <path d="M41.33 34.31a8.963 8.963 0 0 1 4.836 2.509 8.943 8.943 0 0 1 2.51 4.829 1.487 1.487 0 0 0 1.713 1.222c.003 0 .007 0 .012-.003.397-.066.745-.28.976-.613.23-.329.317-.723.248-1.113a11.87 11.87 0 0 0-3.343-6.44 11.939 11.939 0 0 0-6.456-3.336h-.002a1.498 1.498 0 0 0-1.722 1.226 1.505 1.505 0 0 0 1.228 1.723v-.003zM50.538 46.84c-.818-.85-1.81-1.3-2.864-1.3-1.045 0-2.043.442-2.879 1.283l-2.077 2.075c-.051-.026-.103-.05-.15-.075l-.105-.052c-.222-.113-.479-.24-.69-.372-2.133-1.354-4.079-3.127-5.958-5.426-.804-1.01-1.366-1.869-1.78-2.723a49.44 49.44 0 0 0 1.464-1.452c.103-.102.205-.207.31-.314.102-.105.208-.212.314-.317.87-.868 1.33-1.876 1.326-2.912 0-1.034-.46-2.037-1.326-2.898l-2.019-2.017-.348-.35-.343-.348-.16-.164a34.251 34.251 0 0 0-1.228-1.208c-.811-.806-1.795-1.234-2.835-1.234-1.037 0-2.028.426-2.871 1.234-.003.003-.007.003-.007.007l-2.531 2.525a5.892 5.892 0 0 0-1.75 3.74v.003c-.135 1.716.175 3.526.978 5.697 1.216 3.284 3.042 6.328 5.743 9.576 3.295 3.924 7.25 7.019 11.755 9.197h.003c1.736.829 4.065 1.798 6.695 1.97h.029c.15.008.307.015.47.015 1.845 0 3.402-.669 4.621-1.985l.018-.018c.014-.014.026-.026.036-.04.365-.439.786-.845 1.257-1.297.324-.31.657-.628.979-.97.83-.865 1.268-1.872 1.264-2.913-.003-1.044-.45-2.041-1.29-2.88l-4.054-4.059.003.002zm-.4 10.172c-.65.694-1.396 1.005-2.411 1.005-.095 0-.202-.008-.31-.015-2.104-.134-4.094-.966-5.594-1.679-4.135-1.988-7.758-4.82-10.771-8.42-2.467-2.966-4.128-5.734-5.229-8.697-.657-1.764-.905-3.127-.803-4.416.066-.752.348-1.35.884-1.88l2.513-2.511c.263-.251.533-.387.786-.387.237 0 .49.131.757.391l.012.012c.435.409.859.84 1.307 1.292l.015.014c.216.222.465.48.716.723l2.017 2.014c.588.589.588 1 0 1.589-.212.211-.427.426-.64.645l-.15.153c-.566.573-1.098 1.113-1.68 1.628-.007.007-.017.015-.026.026l-.037.037c-.616.616-.786 1.354-.496 2.187a.84.84 0 0 0 .036.09c.54 1.304 1.3 2.54 2.47 4.017 0 .003.002.003.002.008 2.075 2.552 4.264 4.543 6.693 6.084.317.202.646.368.952.523.227.114.483.245.694.372.015.012.03.018.044.026l.012.008c.022.011.044.026.07.036.317.16.631.237.957.237.555 0 1.067-.231 1.479-.665l2.528-2.525c.182-.183.467-.402.767-.402.277 0 .548.217.723.398l.007.007 4.08 4.076c.402.401.675.875-.032 1.62l-.003.003c-.222.24-.46.47-.713.715-.056.051-.11.105-.164.16-.511.48-1 .953-1.461 1.501h-.002z"/>
            <path d="M57.975 40.848c-.672-3.953-2.542-7.56-5.409-10.424-2.879-2.868-6.488-4.737-10.448-5.404a1.498 1.498 0 0 0-1.72 1.226 1.497 1.497 0 0 0 1.224 1.72c3.349.57 6.4 2.153 8.825 4.572a16.265 16.265 0 0 1 4.576 8.814c.12.723.743 1.244 1.476 1.244h.012c.09 0 .168-.011.226-.022.003 0 .008 0 .012-.003.398-.065.745-.28.976-.613.234-.324.322-.718.251-1.11z"/>
        </g>
    </g>
</svg>
