<svg width="83" height="83" viewBox="0 0 83 83" xmlns="http://www.w3.org/2000/svg">
    <g fill="none" fill-rule="evenodd">
        <circle fill="#F7F8FF" cx="41.5" cy="41.5" r="41.5"/>
        <path d="M62 31.5a3.5 3.5 0 0 0-3.499-3.5H24.5A3.501 3.501 0 0 0 21 31.5v23.001-.002A3.5 3.5 0 0 0 24.499 58H58.5A3.501 3.501 0 0 0 62 54.5v-23zm-3 0v23.001-.002a.5.5 0 0 1-.499.5l-34.002.001a.5.5 0 0 1-.499-.5V31.498v.002a.5.5 0 0 1 .499-.5l34.002-.001a.5.5 0 0 1 .499.5zm-32.244 5.301 14.001 8h-.001a1.497 1.497 0 0 0 1.488 0l14.001-8h-.001a1.5 1.5 0 0 0-1.487-2.602L41.5 41.772l-13.257-7.573a1.499 1.499 0 0 0-1.486 2.602z" fill="#033AA3"/>
    </g>
</svg>
